<svg width="24" height="24" viewBox="0 0 24 24" fill="none" xmlns="http://www.w3.org/2000/svg">
<circle cx="12" cy="12" r="12" fill="#555A7B"/>
<path d="M18.1916 16.0275C18.1528 15.7348 17.9836 15.4824 17.7273 15.335L14.7176 13.6045C14.3489 13.3926 13.8813 13.4543 13.5804 13.7547L12.9876 14.3467C12.8298 14.5043 12.5802 14.5182 12.4071 14.3791C11.9398 14.0036 11.4796 13.5903 11.0395 13.1507C10.5993 12.7111 10.1854 12.2516 9.80933 11.7849C9.67003 11.612 9.68396 11.3628 9.84177 11.2052L10.4346 10.6132C10.7354 10.3128 10.7973 9.84583 10.585 9.47763L8.85209 6.47199C8.70453 6.21607 8.45179 6.04709 8.15863 6.00835C7.86544 5.96954 7.57736 6.06719 7.36825 6.27601L6.47498 7.16808C5.85153 7.7907 5.84151 8.92958 6.44679 10.375C7.02879 11.7648 8.11491 13.2947 9.50503 14.683C10.8952 16.0712 12.4272 17.1559 13.819 17.7371C14.5315 18.0346 15.1695 18.1833 15.7082 18.1832C16.2638 18.1832 16.7137 18.025 17.0303 17.7089L17.9236 16.8168C18.1327 16.608 18.2304 16.3203 18.1916 16.0275ZM14.5204 13.9466L17.5301 15.6771C17.679 15.7627 17.7773 15.9093 17.7998 16.0793C17.8187 16.222 17.7816 16.3625 17.6974 16.4757L13.6974 14.196L13.8599 14.0338C14.0346 13.8593 14.3063 13.8235 14.5204 13.9466ZM8.10677 6.39966C8.27707 6.42215 8.42386 6.5203 8.50955 6.66894L10.2425 9.67459C10.3658 9.88843 10.3298 10.1597 10.1551 10.3341L10.0059 10.4831L7.7105 6.50188C7.80433 6.43249 7.91655 6.39481 8.03355 6.39481C8.05781 6.39481 8.08229 6.39642 8.10677 6.39966ZM16.7508 17.4298C16.2555 17.9244 15.2425 17.9037 13.9715 17.3729C12.6261 16.8111 11.1392 15.7566 9.78454 14.4039C8.42992 13.0511 7.37405 11.5662 6.81143 10.2227C6.27989 8.95345 6.25915 7.94182 6.75447 7.44716L7.4176 6.78491L9.71645 10.7722L9.56228 10.9261C9.2615 11.2265 9.23531 11.7021 9.50139 12.0323C9.88633 12.5101 10.3098 12.9803 10.7599 13.4298C11.2101 13.8793 11.681 14.3022 12.1593 14.6866C12.49 14.9523 12.9662 14.9262 13.2671 14.6258L13.4077 14.4853L17.4132 16.7682L16.7508 17.4298Z" fill="white"/>
</svg>
